<svg width="260" height="48" viewBox="0 0 260 48" fill="none" xmlns="http://www.w3.org/2000/svg">
<path d="M0 48V0.799997H2.4V48H0ZM7.2 48V0.799997H14.4V48H7.2ZM19.2 48V0.799997H24V48H19.2ZM26.4062 48V0.799997H31.2063V48H26.4062ZM36.0063 48V0.799997H43.2063V48H36.0063ZM48.0063 48V0.799997H50.4063V48H48.0063ZM52.8125 48V0.799997H57.6125V48H52.8125ZM62.4125 48V0.799997H64.8125V48H62.4125ZM67.2125 48V0.799997H74.4125V48H67.2125ZM79.2188 48V0.799997H84.0188V48H79.2188ZM88.8188 48V0.799997H91.2188V48H88.8188ZM96.0188 48V0.799997H103.219V48H96.0188ZM105.625 48V0.799997H110.425V48H105.625ZM112.825 48V0.799997H120.025V48H112.825ZM124.825 48V0.799997H127.225V48H124.825ZM132.031 48V0.799997H136.831V48H132.031ZM141.631 48V0.799997H148.831V48H141.631ZM151.231 48V0.799997H153.631V48H151.231ZM158.438 48V0.799997H165.638V48H158.438ZM168.038 48V0.799997H172.838V48H168.038ZM175.238 48V0.799997H182.438V48H175.238ZM184.844 48V0.799997H192.044V48H184.844ZM194.444 48V0.799997H196.844V48H194.444ZM201.644 48V0.799997H206.444V48H201.644ZM211.25 48V0.799997H218.45V48H211.25ZM223.25 48V0.799997H225.65V48H223.25ZM228.05 48V0.799997H232.85V48H228.05ZM237.656 48V0.799997H240.056V48H237.656ZM244.856 48V0.799997H252.056V48H244.856ZM254.456 48V0.799997H259.256V48H254.456Z" fill="#FBFDFF"/>
</svg>
